<?xml version="1.0" encoding="utf-8"?>
<!-- Generator: Adobe Illustrator 27.5.0, SVG Export Plug-In . SVG Version: 6.00 Build 0)  -->
<svg version="1.1" xmlns="http://www.w3.org/2000/svg" xmlns:xlink="http://www.w3.org/1999/xlink" x="0px" y="0px"
	 viewBox="0 0 1122 1122" style="enable-background:new 0 0 1122 1122;" xml:space="preserve">
<g id="Bg">
	<g>
		<g>
			<rect style="fill:#FFFFFF;" width="1122" height="1122"/>
		</g>
	</g>
</g>
<g id="Object">
	<g>
		<path style="fill:#AAD4C8;" d="M554.697,645.729l5.353,0.009l65.993,0.161c7.132,0.012,12.939-5.744,12.957-12.894l0.203-77.112
			c0.021-7.132-5.743-12.939-12.894-12.957l-131.695-0.33c-7.129-0.015-12.936,5.768-12.955,12.9l-0.206,77.112
			c-0.021,7.142,5.744,12.936,12.894,12.96l12.083,0.027l80.719-80.737c6.684-6.684,17.521-6.684,24.205,0
			c6.682,6.681,6.682,17.52,0,24.19L554.697,645.729z"/>
		<path style="fill:#616E7D;" d="M432.696,493.955c-7.964-0.042-14.464,6.419-14.464,14.395l-0.448,178.766
			c-0.021,7.977,6.418,14.446,14.404,14.467l255.769,0.633c7.986,0.039,14.468-6.419,14.486-14.407l0.448-178.76
			c0.021-7.977-6.44-14.453-14.422-14.483L432.696,493.955z M638.999,633.004c-0.018,7.151-5.825,12.906-12.957,12.894
			l-65.993-0.161l-5.353-0.009l56.656-56.671c6.682-6.67,6.682-17.509,0-24.19c-6.684-6.684-17.521-6.684-24.205,0l-80.719,80.737
			l-12.083-0.027c-7.15-0.024-12.915-5.819-12.894-12.96l0.206-77.112c0.019-7.132,5.826-12.914,12.955-12.9l131.695,0.33
			c7.151,0.019,12.915,5.826,12.894,12.957L638.999,633.004z M667.056,569.461c-5.298,0-9.598-4.297-9.598-9.611
			c0-5.302,4.3-9.605,9.598-9.605c5.296,0,9.596,4.303,9.596,9.605C676.652,565.164,672.351,569.461,667.056,569.461z
			 M667.056,543.137c-5.298,0-9.598-4.3-9.598-9.613c0-5.296,4.3-9.599,9.598-9.599c5.296,0,9.596,4.303,9.596,9.599
			C676.652,538.838,672.351,543.137,667.056,543.137z"/>
		<path style="fill:#616E7D;" d="M364.384,494.464c-3.401,0-6.191,2.751-6.191,6.173l-0.43,174.623
			c-0.02,3.422,2.751,6.191,6.173,6.212l35.756,0.079c3.425,0.024,6.194-2.747,6.194-6.17l0.447-174.617
			c0-3.425-2.771-6.197-6.194-6.215L364.384,494.464z"/>
		<path style="fill:#616E7D;" d="M382.291,718.505c12.595,0.024,22.798,10.301,22.78,22.889
			c-0.021,7.977,6.419,14.452,14.401,14.483c7.968,0.024,14.447-6.437,14.468-14.416c0.082-28.52-23.061-51.775-51.585-51.836
			c-28.523-0.063-51.769,23.071-51.85,51.582c-0.064,28.523,23.079,51.787,51.603,51.854c7.97,0.021,14.446-6.44,14.467-14.404
			c0.021-7.986-6.439-14.458-14.404-14.477c-12.591-0.03-22.819-10.301-22.78-22.889
			C359.415,728.678,369.703,718.46,382.291,718.505z"/>
		<path style="fill:#616E7D;" d="M721.939,492.588c-3.422,0-6.191,2.751-6.215,6.173l-0.427,174.635c0,3.41,2.772,6.194,6.176,6.207
			l35.774,0.079c3.401,0.012,6.194-2.754,6.194-6.164l0.408-174.629c0.039-3.425-2.732-6.197-6.155-6.197L721.939,492.588z"/>
		<path style="fill:#616E7D;" d="M739.705,765.07c-7.965-0.034-14.443,6.415-14.464,14.401c-0.018,7.968,6.44,14.443,14.383,14.468
			c28.524,0.079,51.788-23.077,51.872-51.588c0.061-28.524-23.082-51.791-51.606-51.849c-28.502-0.063-51.772,23.08-51.83,51.603
			c-0.021,7.965,6.418,14.447,14.383,14.465c7.986,0.021,14.465-6.43,14.486-14.407c0.018-12.589,10.307-22.817,22.901-22.786
			c12.592,0.03,22.817,10.301,22.777,22.901C762.582,754.881,752.294,765.094,739.705,765.07z"/>
		<path style="fill:#616E7D;" d="M481.899,715.467c-3.401-0.006-6.176,2.76-6.194,6.161l-0.202,81.146
			c0,3.419,2.768,6.188,6.172,6.197l50.892,0.121c3.422,0.012,6.194-2.754,6.194-6.173l0.203-81.128c0-3.42-2.75-6.191-6.17-6.203
			L481.899,715.467z"/>
		<path style="fill:#616E7D;" d="M589.859,715.733c-3.425-0.012-6.194,2.751-6.194,6.17l-0.223,81.131
			c0,3.407,2.75,6.203,6.194,6.203l50.871,0.133c3.425,0.012,6.194-2.754,6.215-6.176l0.185-81.137
			c0.018-3.413-2.751-6.185-6.176-6.191L589.859,715.733z"/>
		<path style="fill:#616E7D;" d="M457.31,824.038c-3.404-0.012-6.194,4.318-6.194,9.665l-0.082,30.145
			c-0.021,5.344,2.751,9.686,6.152,9.699l78.377,0.19c3.444,0,6.215-4.318,6.233-9.665l0.064-30.143
			c0.018-5.338-2.751-9.69-6.155-9.701L457.31,824.038z"/>
		<path style="fill:#616E7D;" d="M585.886,824.356c-3.423-0.012-6.194,4.315-6.212,9.677l-0.064,30.127
			c-0.021,5.338,2.729,9.702,6.156,9.702l78.373,0.193c3.426,0.012,6.195-4.33,6.216-9.677l0.082-30.127
			c0.022-5.356-2.751-9.692-6.155-9.702L585.886,824.356z"/>
		<path style="fill:#616E7D;" d="M501.496,247.963l-5.501-0.018c-3.42,0-6.188,2.751-6.212,6.17l-0.079,31.622l-33.353-0.082h-0.021
			h-2.36c-8.966-0.019-16.241,7.232-16.28,16.195l-0.387,162.812c-0.039,8.963,7.211,16.253,16.177,16.274l217.956,0.533
			c8.966,0.015,16.238-7.22,16.255-16.199l0.409-162.809c0.018-8.963-7.232-16.231-16.198-16.256l-6.806-0.018l-28.928-0.085
			l0.083-31.619c0-3.423-2.77-6.191-6.171-6.2l-5.501-0.021c-3.426-0.012-6.216,2.757-6.216,6.182l-0.082,31.616l-110.689-0.278
			l0.082-31.61C507.672,250.748,504.9,247.963,501.496,247.963z M483.63,344.24c11.593,0,21.003,9.399,21.003,21.013
			c0,11.608-9.411,21.013-21.003,21.013c-11.614,0-21.004-9.405-21.004-21.013C462.626,353.638,472.017,344.24,483.63,344.24z
			 M640.914,344.24c11.614,0,21.025,9.399,21.025,21.013c0,11.608-9.411,21.013-21.025,21.013c-11.593,0-21.004-9.405-21.004-21.013
			C619.91,353.638,629.322,344.24,640.914,344.24z M681.151,417.485v5.997H445.799v-5.997H681.151z"/>
		<path style="fill:#616E7D;" d="M386.836,351.157l-0.163,63.94c0,3.425,2.768,6.207,6.173,6.207l24.081,0.063v-76.311
			l-23.875-0.073C389.627,344.972,386.836,347.743,386.836,351.157z"/>
		<path style="fill:#AAD4C8;" d="M416.927,345.056v76.311l6.869,0.015c3.42,0,6.188-2.757,6.188-6.17l0.167-63.953
			c0.019-3.413-2.751-6.191-6.176-6.191L416.927,345.056z"/>
		<path style="fill:#616E7D;" d="M710.084,345.005v76.307l23.875,0.07c3.425,0,6.213-2.766,6.213-6.17l0.166-63.953
			c0-3.413-2.769-6.191-6.176-6.203L710.084,345.005z"/>
		<path style="fill:#AAD4C8;" d="M697.023,351.157l-0.164,63.952c-0.021,3.408,2.751,6.195,6.176,6.195l7.048,0.009v-76.307
			l-6.867-0.021C699.795,344.984,697.023,347.732,697.023,351.157z"/>
		<path style="fill:#FFFFFF;" d="M462.626,365.252c0,11.608,9.39,21.013,21.004,21.013c11.593,0,21.003-9.405,21.003-21.013
			c0-11.614-9.411-21.013-21.003-21.013C472.017,344.24,462.626,353.638,462.626,365.252z"/>
		<path style="fill:#FFFFFF;" d="M619.91,365.252c0,11.608,9.411,21.013,21.004,21.013c11.614,0,21.025-9.405,21.025-21.013
			c0-11.614-9.411-21.013-21.025-21.013C629.322,344.24,619.91,353.638,619.91,365.252z"/>
		<rect x="445.799" y="417.485" style="fill:#FFFFFF;" width="235.352" height="5.997"/>
		<path style="fill:#82BFAB;" d="M657.457,533.524c0,5.314,4.3,9.613,9.598,9.613c5.296,0,9.596-4.3,9.596-9.613
			c0-5.296-4.3-9.599-9.596-9.599C661.758,523.925,657.457,528.228,657.457,533.524z"/>
		<path style="fill:#82BFAB;" d="M657.457,559.85c0,5.313,4.3,9.611,9.598,9.611c5.296,0,9.596-4.297,9.596-9.611
			c0-5.302-4.3-9.605-9.596-9.605C661.758,550.245,657.457,554.548,657.457,559.85z"/>
	</g>
</g>
</svg>
