<svg xmlns="http://www.w3.org/2000/svg" width="265.972" height="676.671" viewBox="0 0 265.972 676.671"><g transform="translate(-420.703 889.742) rotate(-90)" opacity="0.048"><g transform="translate(213.071 420.703)"><path d="M828.13,574.4c-2.362-6.326-4.723-12.652-7.64-20.462-4.748,8.78-8.673,16.564-13.081,24.064-6.75,11.488-14.3,22.4-25.592,30.038-14.783,10-28.123,8.187-38.436-6.371-3.308-4.669-5.156-3.224-8.322-1.285-6.17,3.778-12.46,7.339-19.562,9.092-12.67,3.127-17.976-.4-19.8-13.511-.76-5.457-.827-11.012-1.33-18.272-6.541,8.492-11.587,16.1-17.719,22.7-6.109,6.575-13.591,12.677-23.24,7.029-8.782-5.141-8.03-14-6.439-22.612,1.909-10.35,6.342-19.855,9.873-29.669,2-5.568,5.1-11.063,2.594-17.789-6.728.473-9.079,5.918-11.731,10.571-9.818,17.227-15.854,35.9-20.777,55.013-.751,2.915,1.762,8.525-4.247,8.148-5.449-.341-10.245-2.887-10.9-9.27-.361-3.543-.065-7.154-.065-11.366-6.076,1.255-7.949,6.8-11.5,10.141-12.867,12.128-18.287,11.195-24.96-5.037-.587.161-1.478.127-1.744.518-6.3,9.248-14.222,16.736-26.019,12.151-12.03-4.676-13.494-16.144-12.659-27.44,1.271-17.2,7.634-32.657,17.9-46.352-.875-.863-1.344-1.74-1.839-1.755-19.794-.6-19.794-.586-25.763,17.729-6.326,19.412-16.843,36.256-30.48,51.413-5.5,6.112-11.664,6.938-18.418,4.362-7.053-2.69-6.5-9.367-6.32-15.457.181-6.176,3.339-12.143,1.207-20.085-7.55,11.761-14.492,22.52-24.262,30.9-18.429,15.8-36.817,11.356-44.656-11.566-2.289-6.7-6.027-4.864-10.1-4.78-16.442.336-16.961.179-22.808-7.958,2.837-2.544,6.039-.568,8.955-.585,18.993-.111,19.975-.765,25.278-18.59,3.641-12.239,9.332-23.345,20.462-30.262,8.2-5.094,17.676-7.54,25.7-.181,7.913,7.255,5.027,16.132.811,24.4-4.969,9.738-13.29,16.18-22.677,20.919-7.11,3.589-11.756,7.037-6.384,15.345,5.188,8.025,11.941,7.551,18.619,2.754,17.559-12.611,29.892-29.026,34.346-50.556,1.037-5.011,2.673-10.056,1.1-15.456-.642-2.2-2.966-5.708,1.236-7.089,2.816-.925,5.6.392,7.892,2.119,3.482,2.628,4.25,6.49,4.737,10.63,1.626,13.827-2.014,27.121-3.789,40.6-.261,1.987-1.081,3.937-1.106,5.911-.054,4.24-3.02,10.5.9,12.245,5.141,2.291,7.9-4.34,10.427-7.854,12.931-18,22.077-37.353,17.6-60.467-.745-3.851.453-6.016,3.836-7.625,3.234-1.538,5.86-1.789,8.569,1.207,11.565,12.8,26.113,12.35,41.2,8.823,3.981-.93,7.882-1.824,11.757.038s4.634,5.254,4.144,9.141c-.306,2.43-1.038,5.633-3.738,5.157-13.766-2.424-16.35,8.771-21.026,17.036-4.022,7.108-5.191,15.169-5.086,23.3.072,5.572-.51,12.373,6.33,14.108,6.856,1.739,9.76-4.709,12.383-9.416,9.107-16.35,13.7-34.185,16-52.654.4-3.164.472-6.368.7-9.588,13.273,2.49,16.383,7.312,12.981,21.322-3.5,14.424-8.033,28.61-9.752,43.427-.3,2.595-2.1,5.479,2.1,8.627,18.832-16.488,31.039-36.471,34.514-61.854.641-4.688-3.22-12.775,4.667-13.719,8.419-1.008,12.443,5.569,13.3,13.986,9.48-5.985,18.989-14.682,28.932-6.351,9.678,8.11,3.243,19.47.328,29.246-2.979,9.987-6.88,19.7-9.851,29.69-.93,3.124-2.392,7.7,2.13,9.5,3.678,1.468,5.808-2.188,7.7-4.547,14.845-18.52,23.935-39.845,29.4-62.725,1.692-7.085,3.152-13.391,12.3-14.26-18.442-3.551-36.839-7.361-55.338-10.582-18.631-3.245-37.347-2.84-56.133.174,14.127-13.158,31.554-13.855,49.069-12.382,15.58,1.311,31.287,3.067,46.452,6.673,10.716,2.547,13.091-1.548,14.578-10.413.692-4.122-2.64-12.247,5.878-11.314,7.183.785,9.966,7.766,8.2,13.879-3.729,12.918,4.379,12.709,12.552,12.636,15.7-.14,31.322-.954,46.316-9.912,1.188,10.157-3.946,14.955-11.433,17.735-13.373,4.966-27.409,7.131-41.486,5.422-9.852-1.2-13.205,2.708-14.825,11.5-3.633,19.715-9.542,39.058-10.009,59.275-.278,11.984,2.269,13.4,13.524,8.9,9.318-3.73,15.983-7.883,15.879-20.48-.111-13.338,6.709-25.456,15.862-35.595a31.832,31.832,0,0,1,18.5-10.567c6.5-1.079,13.071-.641,17.563,5.221,4.372,5.7,3.93,11.948,1.156,18.238-5.466,12.4-16.064,19.844-26.62,27.192-5.516,3.839-11.366,7.118-6.618,15.071,4.929,8.258,11.38,5.463,17.646,1.9,20.136-11.439,29.843-31.09,38.424-51.027,2.653-6.163-2.855-13.751-2.171-21.143,1.015-10.942,6.177-15.924,16.907-15.914,8.637.008,10.13,3.58,5.569,10.217-10,14.558-6.464,27.8,3.848,41.464,14.288-17.11,26.884-34.584,30.788-56.712,3.424-19.411-14.419-36.638-31.586-31.123-6.774,2.176-11.024,6.2-12.382,13.281-.4,2.082,1.27,5.539-2.15,5.916-3.607.4-5.965-2.452-7.045-5.58-3.175-9.2,1.571-15.8,8.417-20.646,11.717-8.3,24.773-9.248,37.851-3.723,12.606,5.326,18.8,15.732,20.387,29.072,1.328,11.119-1.1,21.579-5.755,31.587-4.082,8.784-8.675,17.506-15.56,24.251-13.261,12.991-19.571,24.791-10.839,45.153,9.58,22.336-6.192,40.151-29.068,38.431-13.754-1.034-21.023-10.97-17.124-24.262a56.05,56.05,0,0,1,20.193-29.082c.372,5.047,2.408,10.053-1.287,14.988a34.4,34.4,0,0,0-5.267,10.674c-1.225,4.133-2.318,9.121,3.328,11.2,5.063,1.867,8.234-1.434,10.732-5.293a14.334,14.334,0,0,0,1.308-12.7C833.224,587.8,830.594,581.127,828.13,574.4Zm-69.049-1.159c9.936-7.261,16.894-15.046,21.02-25.178,1.079-2.646,1.748-5.885-.875-7.668-2.944-2-5.34.692-7.017,2.747C765.365,551.536,761,561.065,759.081,573.246ZM420.148,562.693c8.152-4.3,15.587-9.261,18.762-18.629.967-2.852,1.852-5.619-.929-7.612-3-2.149-5.358.358-7.252,2.156C424.119,544.886,422.1,553.5,420.148,562.693Z" transform="translate(-208.492 -419.636)" fill="#fff"/><path d="M286.313,564.356c-13.163-.42-26.28-1.746-38.87-6.485-24.31-9.15-36.429-26.568-34.086-49.155,2.195-21.145,21.087-39.632,44.123-43.179,7.585-1.168,15.227-1.95,22.51,1.131,6.23,2.636,11.563,6.646,10.164,14.411-.9,4.979-1.569,10.068-9.916,5.46-16.088-8.881-37.231-2-45.99,13.455-8.813,15.548-3.443,34.563,13.5,44.587,20.222,11.966,42.1,11.412,64.265,6.783,7.834-1.637,6.5-8.439,7.022-13.48,2.176-21.164,3.541-42.418,7.857-63.309,2.278-11.026,5.215-21.885,10.507-31.9,9.038-17.106,24.487-24.786,41.832-21.042,14.8,3.2,23.124,15.75,23.864,35.99,1.46,39.965-27.759,81.5-68.423,97.489C319.147,561.215,303.012,563.785,286.313,564.356Zm98.84-108.037c-.581-3.691-.987-8.5-2.154-13.124-1.391-5.506-3.327-11.167-10.135-12.014-6.77-.842-11.316,2.711-14.72,8.349a67.083,67.083,0,0,0-7.191,17.744c-5.892,22.225-8.15,44.991-9.4,67.835-.181,3.3-5.983,7.527-.052,10.078,4.391,1.888,7.105-2.7,9.957-5.329C372.613,510.36,382.629,485.7,385.153,456.319Z" transform="translate(-213.071 -420.703)" fill="#fff"/><path d="M303.3,593.191c7.143-14.746,7.7-33.967,29.773-33.685.837,7.241-3.336,14.185-6.076,21.316-1.824,4.745-1.45,6.959,3.735,8.9,21.688,8.1,42.562,19.553,67.254,13.724-2.423,13.8-10.2,20.931-23.486,22.144-10.722.979-20.658-1.858-30.027-6.867-7.417-3.965-14.9-7.837-22.075-12.212-5.336-3.254-8.982-2.586-13.378,2.041-13.348,14.048-30.334,18.915-49.257,17.379-10.873-.882-19.414-5.5-21.626-17.268-1.994-10.6,3.783-19.691,15.3-24.3,13.866-5.555,28.2-4.576,42.7-3.128C303.565,581.969,301.047,587.753,303.3,593.191Zm-2.344,1.6c-4.923,2.1-9.552-.3-14.14-.883-7.233-.922-14.385-1.376-21.5.366-6.692,1.637-12.49,4.626-11.38,12.84,1.008,7.458,6.758,9.049,13.317,9.266C283.113,616.9,293.378,608.465,300.957,594.79Z" transform="translate(-212.348 -416.635)" fill="#fff"/><path d="M401,659.331c-.006-1.995-.347-4.064.063-5.97.909-4.237-2.964-11.2,3.236-12.234,7.943-1.327,16.9-2.8,24.075,3.383,5.264,4.542,4.832,10.7,3.249,16.607-.557,2.081-2.491,4.139-4.33,5.466-5.724,4.129-16.115,1.014-17.915,12.033-.2,1.239-8.594,2.556-8.4-4.921C401.112,668.91,401.009,664.118,401,659.331Z" transform="translate(-207.571 -414.276)" fill="#fff"/><path d="M683.623,678.478c-6.335.9-10.142,1.571-14-3.586-4.269-5.712-11-5.968-15.43.765-2.934,4.456-7.219,4.74-10.334,2.944-4.193-2.417-.33-6.2.861-9.133,3-7.4,6.434-14.636,9.5-22.016,1.593-3.833,2.942-7.2,8.254-7.019,4.65.157,5.974,2.96,7.443,6.445C674.256,657.172,678.792,667.382,683.623,678.478Z" transform="translate(-200.499 -414.263)" fill="#fff"/><path d="M594.523,669.55c5.374,0,8.16.133,10.926-.032,4.157-.246,5.741,1.681,5.58,5.7-.166,4.115-2.993,4.022-5.854,4.049a8.937,8.937,0,0,1-1.2.007c-8.484-1.086-21.433,4.237-24.579-2.469-4.594-9.79,10.214-15.338,13.4-24.664-.442-.521-.8-1.3-1.395-1.584-4.033-1.916-12.08,3.487-12.163-4.747-.1-9.467,8.383-4.767,12.884-4.96,5.981-.256,14.448-3.481,17.664,2.123,4.068,7.088-4.813,11.5-8.242,16.976C599.917,662.553,597.922,664.935,594.523,669.55Z" transform="translate(-202.358 -414.284)" fill="#fff"/><path d="M530.206,667.429c4.968,4.978,15.4-2.739,14.719,7.276-.628,9.208-9.578,3.8-14.527,4.242-5.966.529-14.853,3.547-17.746-1.948-3.589-6.816,5.706-11.1,8.954-16.739a88.589,88.589,0,0,1,5.822-8.048c-4.134-5-14.96,3.034-13.7-7.232,1.082-8.854,9.793-3.607,14.88-4.106,5.146-.505,12.641-3.237,15.533,1.757,3.972,6.86-4.027,11.045-7.374,16.117C534.835,661.67,532.547,664.355,530.206,667.429Z" transform="translate(-204.313 -414.285)" fill="#fff"/><path d="M477.73,659.742c0,4.768-.143,9.541.04,14.3.167,4.366-2.216,5.259-5.936,5.352-3.929.1-5.816-1.112-5.715-5.4.213-9.133.108-18.275.054-27.412-.02-3.575.624-6.054,5.137-6.121,4.546-.067,6.618,1.542,6.454,6.167C477.609,651,477.732,655.372,477.73,659.742Z" transform="translate(-205.653 -414.261)" fill="#fff"/><path d="M298.553,656.66c13.738,0,26.372.455,38.957-.13,12.207-.568,24.618,2.512,36.653-2.134,3.411-1.317,6.6-.018,6.532,4.337-.05,3.2-2.24,5.533-5.522,4.777-22.874-5.268-46.043-.834-69.017-2.351C303.951,661.014,301.262,662.131,298.553,656.66Z" transform="translate(-210.565 -413.867)" fill="#fff"/><path d="M786.608,658.66c-3.159,4.151-7.428,2.232-11,2.472-21.388,1.44-42.966-2.657-64.248,2.2-4.148.946-6.252-1.358-6.265-5.042-.011-3.451,2.7-4.893,5.844-4.1,21.23,5.326,42.81,1.07,64.168,2.532C778.772,656.966,782.858,655.176,786.608,658.66Z" transform="translate(-198.648 -413.865)" fill="#fff"/></g></g></svg>